<svg id="Capa_1" enable-background="new 0 0 512 512" height="512" viewBox="0 0 512 512" width="512" xmlns="http://www.w3.org/2000/svg"><g><path d="m432.245 56.811c5.208.56 10.417 1.149 15.625 1.762-2.046-29.105-19.088-43.869-50.697-43.869-4.257 0-7.707 3.451-7.707 7.707s3.45 7.707 7.707 7.707c22.467.001 32.897 7.804 35.072 26.693z" fill="#f1e64d"/><g fill="#ddeafb"><path d="m243.069 102.286v86.595h-181.164c-11.334 0-20.387-9.474-19.843-20.798.761-15.784 1.685-31.547 2.764-47.3.719-10.409 9.382-18.497 19.822-18.497z"/><path d="m243.069 370.979v86.595h-178.42c-10.44 0-19.103-8.087-19.822-18.497-1.079-15.753-2.004-31.516-2.764-47.3-.544-11.324 8.508-20.798 19.843-20.798z"/></g><path d="m441.308 57.806c-116.567-13.254-233.135-13.254-349.702 0-10.541 1.199-18.781 9.674-19.717 20.242-11.915 134.59-11.915 269.18 0 403.77.936 10.567 9.176 19.043 19.717 20.242 116.567 13.254 233.135 13.254 349.702 0 10.541-1.199 18.781-9.674 19.717-20.242 11.915-134.59 11.915-269.18 0-403.77-.936-10.568-9.177-19.044-19.717-20.242z" fill="#95d6a4"/><path d="m94.282 502.35c-.89-.09-1.79-.19-2.68-.29-10.54-1.2-18.78-9.68-19.71-20.24-11.92-134.59-11.92-269.18 0-403.77.93-10.57 9.17-19.05 19.71-20.24.89-.1 1.77-.2 2.66-.29-4.5 3.8-7.5 9.3-8.05 15.5-12.21 137.94-12.21 275.88 0 413.83.55 6.21 3.56 11.71 8.07 15.5z" fill="#78c2a4"/><path d="m346.026 272.478c-53.046 2.727-106.093 2.727-159.139 0-10.846-.558-19.829-8.772-21.213-19.544-3.229-25.138-3.229-50.276 0-75.414 1.384-10.772 10.367-18.987 21.213-19.544 53.046-2.727 106.093-2.727 159.139 0 10.846.558 19.829 8.772 21.213 19.544 3.229 25.138 3.229 50.276 0 75.414-1.384 10.772-10.367 18.987-21.213 19.544z" fill="#ecf4ff"/><path d="m324.962 205.086h-123.993c-4.257 0-7.707-3.451-7.707-7.707s3.45-7.707 7.707-7.707h123.993c4.257 0 7.707 3.451 7.707 7.707s-3.45 7.707-7.707 7.707z" fill="#5766cb"/><path d="m328.222 234.526h-127.253c-4.257 0-7.707-3.451-7.707-7.707s3.45-7.707 7.707-7.707h127.253c4.257 0 7.707 3.451 7.707 7.707 0 4.257-3.45 7.707-7.707 7.707z" fill="#5766cb"/><path d="m345.91 264.675v40.638c0 9.783 7.931 17.714 17.714 17.714 9.783 0 17.714-7.931 17.714-17.714v-40.638" fill="#f1e64d"/><path d="m371.032 321.4c-2.256 1.051-4.764 1.632-7.414 1.632-9.779 0-17.707-7.928-17.707-17.718v-40.638h14.816v40.638c0 7.139 4.216 13.293 10.305 16.086z" fill="#f1cb86"/><path d="m400.445 22.412c2.945 35.74 8.732 110.254 13.197 194.331 0 0-16.672 42.723-32.302 71.899h-17.714-17.716c-15.63-29.176-32.302-71.899-32.302-71.899 4.464-84.077 10.252-158.59 13.197-194.331 1.044-12.665 11.629-22.408 24.337-22.408h24.965c12.709 0 23.294 9.742 24.338 22.408z" fill="#365e7d"/><path d="m357.904 288.641h-11.991c-15.638-29.173-32.305-71.903-32.305-71.903 4.457-84.069 10.25-158.589 13.196-194.322 1.04-12.67 11.63-22.416 24.332-22.416h4.819c-16.383 35.82-16.711 180.666-12.681 213.125 3.274 26.325 11.038 60.437 14.63 75.516z" fill="#2b4d66"/><path d="m413.647 224.45c-.44 0-.886-.038-1.334-.116-32.309-5.639-65.069-5.639-97.378 0-4.186.731-8.184-2.074-8.917-6.267-.732-4.193 2.074-8.185 6.268-8.917 34.065-5.946 68.611-5.946 102.676 0 4.194.732 6.999 4.724 6.268 8.917-.654 3.745-3.908 6.383-7.583 6.383z" fill="#f1e64d"/></g></svg>