<svg id="Capa_1" enable-background="new 0 0 512 512" height="512" viewBox="0 0 512 512" width="512" xmlns="http://www.w3.org/2000/svg"><g><path d="m119.799 472.217c-4.267 0-7.726-3.459-7.726-7.726v-103.658c0-2.049.814-4.015 2.263-5.463l24.66-24.66c3.018-3.018 7.91-3.018 10.927 0 3.018 3.017 3.018 7.909 0 10.927l-22.397 22.397v100.456c-.001 4.268-3.46 7.727-7.727 7.727z" fill="#2b4d66"/><path d="m392.203 472.217c-4.268 0-7.726-3.459-7.726-7.726v-100.458l-22.397-22.397c-3.017-3.017-3.017-7.909 0-10.927 3.018-3.017 7.909-3.017 10.928 0l24.66 24.66c1.449 1.449 2.263 3.414 2.263 5.463v103.658c-.002 4.268-3.461 7.727-7.728 7.727z" fill="#2b4d66"/><path d="m86.33 512v-42.167h339.342v42.167" fill="#8b5e5e"/><g><path d="m189.692 39.678c0-21.732-17.617-39.349-39.35-39.349-16.878 0-31.269 10.629-36.858 25.557-1.134-.067-2.275-.111-3.426-.111-31.658 0-57.321 25.664-57.321 57.321 0 20.948 11.243 39.264 28.018 49.264-5.687 6.823-9.111 15.598-9.111 25.175 0 21.732 17.617 39.349 39.349 39.349s86.343 64.656 86.343 42.924c0-9.935-50.683-101.277-56.757-108.202 16.098-10.149 26.8-28.075 26.8-48.511 0-2.613-.191-5.18-.53-7.7 13.485-6.24 22.843-19.882 22.843-35.717z" fill="#ecf4ff"/><path d="m167.578 4.296c-9.015 4.396-16.095 12.127-19.635 21.589-1.128-.068-2.276-.107-3.423-.107-31.655 0-57.318 25.664-57.318 57.319 0 20.947 11.242 39.269 28.017 49.266-5.689 6.817-9.112 15.599-9.112 25.178 0 15.55 9.025 29 22.124 35.379-5.203 2.538-11.057 3.968-17.232 3.968-21.735 0-39.357-17.622-39.357-39.347 0-9.579 3.423-18.361 9.112-25.178-16.775-9.997-28.017-28.319-28.017-49.266 0-31.655 25.664-57.319 57.318-57.319 1.157 0 2.295.039 3.433.107 5.582-14.928 19.975-25.557 36.857-25.557 6.176 0 12.03 1.43 17.233 3.968z" fill="#ddeafb"/><path d="m322.308 39.678c0-21.732 17.617-39.349 39.35-39.349 16.878 0 31.269 10.629 36.858 25.557 1.134-.067 2.275-.111 3.426-.111 31.658 0 57.321 25.664 57.321 57.321 0 20.948-11.243 39.264-28.018 49.264 5.687 6.823 9.111 15.598 9.111 25.175 0 21.732-17.617 39.349-39.349 39.349s-39.349-17.617-39.349-39.349c0-9.935 3.69-19.003 9.763-25.928-16.098-10.149-26.8-28.075-26.8-48.511 0-2.613.191-5.18.53-7.7-13.485-6.241-22.843-19.883-22.843-35.718z" fill="#ecf4ff"/><path d="m417.913 193.089c-5.115 2.441-10.853 3.802-16.902 3.802-21.735 0-74.98 64.644-74.98 42.919 0-9.939 39.319-101.268 45.388-108.202-16.095-10.143-26.802-28.076-26.802-48.508 0-2.616.195-5.183.535-7.702-13.488-6.243-22.844-19.878-22.844-35.72 0-21.725 17.622-39.347 39.347-39.347 6.049 0 11.777 1.362 16.892 3.812-13.275 6.321-22.445 19.858-22.445 35.535 0 15.842 9.365 29.476 22.844 35.72-.34 2.519-.525 5.086-.525 7.702 0 20.432 10.697 38.365 26.802 48.508-6.078 6.934-9.764 15.997-9.764 25.936 0 15.686 9.18 29.223 22.454 35.545z" fill="#ddeafb"/><path d="m377.278 454.188h-242.549c2.567-27.103 5.991-51.445 8.091-65.342 1.225-7.984 5.922-15.054 12.856-19.207 13.206-7.916 27.152-14.189 40.3-19.109 24.303-9.122 45.902 9.633 55.189 7.96 3.209-.584 6.467-.584 9.667 0 9.287 1.673 30.886-17.082 55.189-7.96 13.148 4.921 27.094 11.193 40.3 19.109 6.934 4.152 11.631 11.223 12.856 19.207 2.101 13.898 5.524 38.239 8.101 65.342z" fill="#365e7d"/><path d="m333.757 438.748h-19.099c-4.268 0-7.726-3.459-7.726-7.726s3.459-7.726 7.726-7.726h19.099c4.268 0 7.726 3.459 7.726 7.726s-3.458 7.726-7.726 7.726z" fill="#2b4d66"/><path d="m216.679 408.021s6.713 12.159 17.559 25.19c6.099 7.328 13.505 4.63 21.76 10.503 8.253-5.872 15.659-3.173 21.757-10.5 10.847-13.033 17.561-25.193 17.561-25.193v-49.753h-78.637z" fill="#ecf4ff"/><path d="m277.752 433.212c-6.097 7.329-13.503 14.934-21.757 20.81-8.254-5.877-15.66-13.481-21.757-20.81l21.757-31.222z" fill="#d57080"/><path d="m216.679 374.489 39.321 37.802 39.321-37.802-36.067-36.066" fill="#d57080"/><path d="m177.344 358.272c-5.358 4.493-8.996 12.059-9.949 20.597-1.731 15.813-4.619 44.161-6.671 75.319h-25.995c2.567-27.103 5.991-51.445 8.091-65.342 1.225-7.984 5.922-15.054 12.856-19.207 7.09-4.249 14.394-8.022 21.668-11.367z" fill="#2b4d66"/><path d="m316.021 350.532-20.7 57.49-39.321-37.803-39.321 37.802-20.7-57.49c24.299-9.123 45.902-13.624 55.19-15.297 3.202-.583 6.46-.583 9.662 0 9.288 1.673 30.891 6.174 55.19 15.298z" fill="#ddeafb"/><path d="m285.852 290.514v49.854c0 16.483-13.366 29.85-29.85 29.85-16.492 0-29.859-13.366-29.859-29.85v-49.854z" fill="#ffddce"/><g fill="#ffcbbe"><path d="m265.751 368.59c-3.054 1.051-6.333 1.626-9.746 1.626-16.492 0-29.859-13.366-29.859-29.85v-49.854h19.493v49.854c0 13.079 8.407 24.191 20.112 28.224z"/><path d="m131.288 249.001c-21.524 0-38.972-17.449-38.972-38.972 0-2.962.331-5.847.957-8.62 5.056-22.391 38.016-18.719 38.016 4.236h249.424c0-22.955 32.96-26.627 38.016-4.236.626 2.773.957 5.658.957 8.62 0 21.524-17.449 38.972-38.972 38.972"/><path d="m226.144 290.514h59.708v45.929h-59.708z"/></g><path d="m131.285 122.534v107.204c0 50.202 40.697 90.899 90.899 90.899h67.628c50.202 0 90.899-40.697 90.899-90.899v-107.204c0-67.673-54.86-122.533-122.533-122.533h-4.361c-67.673 0-122.532 54.86-122.532 122.533z" fill="#ffddce"/><path d="m280.844 320.64h-58.661c-50.2 0-90.899-40.699-90.899-90.899v-107.207c.001-67.666 54.859-122.534 122.534-122.534h4.357c9.336 0 18.419 1.041 27.152 3.024-54.615 12.351-95.382 61.179-95.382 119.509v107.207c0 50.201 40.699 90.9 90.899 90.9z" fill="#ffcbbe"/><g fill="#e0f1f4"><circle cx="197.336" cy="198.673" r="41.137"/><circle cx="314.659" cy="198.673" r="41.137"/></g><g fill="#2b4d66"><path d="m204.813 178.358c-6.496 0-11.781 8.77-11.781 19.549s5.285 19.55 11.781 19.55 11.782-8.77 11.782-19.55-5.286-19.549-11.782-19.549z"/><path d="m307.182 178.358c-6.496 0-11.781 8.77-11.781 19.549s5.285 19.55 11.781 19.55 11.782-8.77 11.782-19.55-5.286-19.549-11.782-19.549z"/></g><path d="m131.294 227.852c-2.425 0-4.811-1.138-6.315-3.266-.147-.203-5.606-7.6-11.046-5.404-3.959 1.594-8.46-.318-10.056-4.275s.317-8.46 4.275-10.056c7.124-2.873 14.857-1.732 21.775 3.212 4.588 3.28 7.393 7.203 7.697 7.64 2.443 3.499 1.586 8.315-1.913 10.758-1.348.94-2.89 1.391-4.417 1.391z" fill="#eaac9d"/><path d="m380.705 227.881c-1.53 0-3.077-.454-4.43-1.398-3.5-2.442-4.341-7.28-1.899-10.779.305-.437 3.11-4.36 7.697-7.64 6.919-4.945 14.651-6.085 21.775-3.212 3.958 1.597 5.871 6.099 4.275 10.056-1.597 3.956-6.1 5.87-10.055 4.275-5.487-2.217-10.994 5.331-11.049 5.408-1.499 2.145-3.886 3.29-6.314 3.29z" fill="#eaac9d"/><path d="m256 279.342c-8.035 0-16.07-3.058-22.187-9.176-3.018-3.017-3.018-7.909 0-10.927 3.017-3.017 7.909-3.017 10.927 0 6.209 6.209 16.312 6.21 22.521 0 3.018-3.017 7.909-3.017 10.928 0 3.017 3.017 3.017 7.909 0 10.927-6.119 6.118-14.154 9.176-22.189 9.176z" fill="#d57080"/><path d="m386.901 175.443c-2.552-3.419-7.393-4.121-10.813-1.567l-14.592 10.897c-6.003-20.191-24.723-34.963-46.837-34.963-23.303 0-42.835 16.401-47.692 38.262-7.201-1.747-14.739-1.747-21.939 0-4.857-21.861-24.389-38.262-47.691-38.262-22.115 0-40.834 14.772-46.838 34.963l-14.591-10.897c-3.42-2.553-8.261-1.851-10.814 1.567-2.553 3.419-1.852 8.261 1.567 10.814l21.99 16.422c2.046 25.075 23.092 44.858 48.686 44.858 25.177 0 45.962-19.142 48.58-43.636 6.521-2.247 13.643-2.247 20.162 0 2.617 24.494 23.402 43.636 48.58 43.636 25.594 0 46.639-19.783 48.685-44.858l21.99-16.421c3.419-2.555 4.12-7.396 1.567-10.815zm-189.564 56.641c-18.423 0-33.411-14.988-33.411-33.411s14.988-33.41 33.411-33.41c18.422 0 33.41 14.988 33.41 33.41 0 18.423-14.988 33.411-33.41 33.411zm117.322 0c-18.423 0-33.41-14.988-33.41-33.411s14.988-33.41 33.41-33.41 33.41 14.988 33.41 33.41c0 18.423-14.988 33.411-33.41 33.411z" fill="#78c2a4"/><path d="m338.134 78.938c-4.268 0-7.726-3.459-7.726-7.726v-.486c0-4.267 3.459-7.726 7.726-7.726 4.268 0 7.726 3.459 7.726 7.726v.486c0 4.266-3.459 7.726-7.726 7.726z" fill="#ffcbbe"/><path d="m353.069 94.183c-4.268 0-7.726-3.459-7.726-7.726v-.486c0-4.267 3.459-7.726 7.726-7.726 4.268 0 7.726 3.459 7.726 7.726v.486c0 4.267-3.458 7.726-7.726 7.726z" fill="#ffcbbe"/><path d="m333.757 99.171c-4.268 0-7.726-3.459-7.726-7.726v-.486c0-4.267 3.459-7.726 7.726-7.726 4.268 0 7.726 3.459 7.726 7.726v.486c.001 4.267-3.458 7.726-7.726 7.726z" fill="#ffcbbe"/></g><path d="m446.313 489.779h-380.624c-7.152 0-12.95-5.798-12.95-12.95v-9.691c0-7.152 5.798-12.95 12.95-12.95h380.625c7.152 0 12.95 5.798 12.95 12.95v9.691c-.001 7.152-5.799 12.95-12.951 12.95z" fill="#9d6b6b"/><path d="m110.264 489.779h-44.576c-7.149 0-12.949-5.8-12.949-12.949v-9.694c0-7.149 5.8-12.949 12.949-12.949h44.576c-7.16 0-12.96 5.8-12.96 12.949v9.694c0 7.149 5.8 12.949 12.96 12.949z" fill="#8b5e5e"/></g></svg>